<?xml version="1.0" standalone="no"?>
<!DOCTYPE svg PUBLIC "-//W3C//DTD SVG 20010904//EN"
 "http://www.w3.org/TR/2001/REC-SVG-20010904/DTD/svg10.dtd">
<svg version="1.0" xmlns="http://www.w3.org/2000/svg"
 width="512.000000pt" height="512.000000pt" viewBox="0 0 512.000000 512.000000"
 preserveAspectRatio="xMidYMid meet">
<metadata>
Created by potrace 1.11, written by Peter Selinger 2001-2013
</metadata>
<g transform="translate(0.000000,512.000000) scale(0.100000,-0.100000)"
fill="#000000" stroke="none">
<path d="M869 5104 c-14 -9 -54 -62 -88 -118 -34 -55 -96 -154 -136 -218 -80
-126 -91 -157 -74 -200 11 -26 113 -102 174 -130 14 -6 25 -15 25 -20 0 -4 4
-8 10 -8 5 0 47 -24 92 -53 119 -77 142 -88 177 -81 44 9 57 25 172 208 163
261 168 270 168 296 1 58 -9 70 -124 142 -27 18 -75 47 -105 66 -30 19 -85 54
-122 78 -78 51 -131 62 -169 38z"/>
<path d="M2595 5019 c-46 -13 -79 -55 -111 -144 -15 -44 -29 -82 -30 -85 0 -3
-3 -12 -6 -20 -25 -66 -74 -272 -83 -342 -3 -26 -20 -76 -39 -110 -40 -74 -66
-152 -69 -202 -1 -20 -5 -36 -8 -36 -3 0 -23 25 -43 55 -73 105 -234 240 -335
281 -58 23 -127 15 -177 -21 -102 -73 -208 -256 -254 -440 -23 -91 -21 -256 4
-339 22 -72 23 -72 -97 -111 -91 -29 -116 -46 -146 -96 -23 -38 -28 -113 -10
-153 10 -21 6 -33 -34 -98 -73 -117 -94 -156 -160 -289 -46 -95 -70 -131 -92
-145 -175 -103 -326 -289 -390 -478 -56 -165 -53 -372 10 -555 30 -89 94 -209
143 -271 54 -68 59 -75 46 -67 -30 18 -221 26 -288 13 -49 -9 -134 -55 -161
-88 -55 -65 -70 -107 -70 -198 0 -99 18 -144 89 -226 65 -73 227 -176 391
-246 113 -48 207 -86 370 -148 99 -38 188 -71 197 -75 13 -5 16 -16 13 -43 -3
-21 -7 -87 -11 -148 -6 -98 -4 -116 12 -143 41 -70 149 -60 176 16 l12 33
1167 0 1167 0 11 -31 c14 -41 36 -56 89 -65 53 -8 120 23 231 107 83 63 128
107 185 183 137 181 159 417 57 618 -56 109 -54 122 18 185 192 169 293 429
285 732 -2 88 -11 194 -19 221 -2 8 -7 27 -10 42 -13 69 -17 84 -42 157 -73
209 -206 378 -378 477 l-50 29 -1 135 c-1 116 -5 147 -27 215 -15 44 -41 100
-58 123 -28 39 -32 51 -35 123 -3 107 -11 157 -34 232 -35 113 -90 158 -193
160 -105 2 -207 -20 -319 -67 l-38 -16 -1 25 c-1 14 -2 28 -3 33 -1 4 -6 30
-11 57 -12 72 -11 68 -35 139 -52 158 -164 268 -307 302 -44 10 -158 11 -227
2 -17 -3 -19 4 -21 57 -3 82 -15 238 -20 263 -2 12 -7 49 -11 84 -8 78 -9 82
-18 138 -4 25 -10 59 -12 75 -13 89 -27 126 -60 155 -19 16 -40 30 -47 31 -7
0 -21 2 -32 4 -11 1 -34 -1 -50 -6z"/>
<path d="M3560 4864 c-107 -47 -206 -90 -221 -95 -30 -11 -59 -57 -59 -92 0
-14 45 -130 101 -258 106 -247 133 -289 187 -289 44 0 468 188 487 216 23 36
21 82 -8 144 -14 30 -55 125 -92 210 -37 85 -74 170 -82 188 -17 35 -58 62
-95 62 -13 0 -111 -39 -218 -86z"/>
<path d="M4707 4789 c-98 -23 -181 -90 -228 -188 -18 -36 -23 -64 -23 -131 -1
-75 2 -92 29 -144 33 -66 98 -129 165 -160 34 -15 65 -20 130 -20 73 -1 93 3
141 27 69 34 119 85 156 157 24 48 27 66 27 140 -1 96 -19 147 -77 215 -34 40
-115 91 -159 101 -43 10 -123 11 -161 3z"/>
<path d="M340 3662 c-114 -17 -206 -85 -257 -192 -36 -74 -37 -191 -3 -264 79
-171 280 -246 446 -166 56 28 119 91 152 155 24 44 27 61 27 140 -1 78 -4 97
-28 142 -67 130 -204 205 -337 185z"/>
<path d="M4665 3539 c-21 -6 -87 -67 -210 -195 -99 -102 -184 -192 -188 -200
-4 -8 -10 -30 -13 -50 -4 -34 0 -40 98 -138 232 -229 275 -266 310 -266 47 1
60 11 190 145 203 209 248 258 249 269 0 6 2 19 4 30 6 33 -11 60 -94 141
-277 271 -288 279 -346 264z"/>
<path d="M255 1603 c-22 -9 -53 -24 -69 -34 -69 -42 -176 -167 -176 -207 0
-21 39 -59 58 -56 6 1 18 2 25 3 6 1 32 28 57 60 54 70 99 104 167 126 60 20
76 34 76 72 0 52 -61 67 -138 36z"/>
</g>
</svg>
